# xmcd
#
# Track frame offsets:
#	150
#	12051
#	25160
#	40437
#	54615
#	73854
#	87163
#	98644
#	115739
#	128463
#	144315
#	157564
#	173169
#	185100
#	204056
#	216407
#	230227
#	243946
#	257324
#
# Disc length: 3623 seconds
#
# Revision: 1
# Processed by: cddbd v1.4PL0 Copyright (c) Steve Scherf et al.
# Submitted via: audiograbber 1.80
#
DISCID=f50e2513
DTITLE=Savannah - The Best Of
DYEAR=1900
DGENRE=
TTITLE0=Baby's Gotta Hold On Me
TTITLE1=Beer Joint Fever
TTITLE2=I'll Never Make It Without You
TTITLE3=The Thought Of You
TTITLE4=Ticket To Heaven
TTITLE5=In The Arms Of Love
TTITLE6=Rub-A-Dubbin
TTITLE7=Love Me
TTITLE8=Mi Vida Loca
TTITLE9=Habits Of The Heart
TTITLE10=You're Gonna LoveMe One Day
TTITLE11=Travelling Light
TTITLE12=Love's Gonna Live Here
TTITLE13=Sweet Dreams
TTITLE14=That's Alright Mama
TTITLE15=Leaving On A Jet Plane
TTITLE16=I Stil Miss Someone
TTITLE17=We Should Only Have Time For Love
TTITLE18=The Next Time I'm In Town
EXTD=
EXTT0=
EXTT1=
EXTT2=
EXTT3=
EXTT4=
EXTT5=
EXTT6=
EXTT7=
EXTT8=
EXTT9=
EXTT10=
EXTT11=
EXTT12=
EXTT13=
EXTT14=
EXTT15=
EXTT16=
EXTT17=
EXTT18=
PLAYORDER=
